<svg id="Capa_1" enable-background="new 0 0 512 512" height="512" viewBox="0 0 512 512" width="512" xmlns="http://www.w3.org/2000/svg"><g id="XMLID_1011_"><path id="XMLID_1026_" d="m472.049 327.103c-7.172 4.482-12.354 7.72-24.053 7.72s-16.881-3.238-24.053-7.72c-5.599-3.499-12.087-7.537-21.338-9.999l26.898-108.327c5.35-21.553-7.196-43.175-28.563-49.225l-17.94-5.08v-94.37h-74.5v-56h-105v56h-74.512v95.156l-15.116 4.377c-20.721 6-33.26 27.188-28.548 48.238l24.432 109.138c-9.448 2.452-16.038 6.548-21.71 10.094-7.171 4.481-12.352 7.72-24.049 7.72s-16.878-3.238-24.049-7.72c-8.753-5.471-19.647-12.28-39.948-12.28v30c11.697 0 16.877 3.238 24.048 7.72 8.754 5.471 19.647 12.28 39.949 12.28s31.195-6.809 39.949-12.28c7.171-4.482 12.352-7.72 24.05-7.72s16.879 3.238 24.05 7.72c8.754 5.471 19.647 12.28 39.949 12.28 20.301 0 31.195-6.809 39.948-12.28 7.17-4.481 12.351-7.72 24.048-7.72 11.698 0 16.879 3.238 24.05 7.72 8.754 5.471 19.647 12.28 39.949 12.28 20.303 0 31.197-6.809 39.951-12.28 7.171-4.482 12.353-7.72 24.051-7.72 11.699 0 16.881 3.238 24.053 7.72 8.754 5.471 19.648 12.28 39.951 12.28s31.197-6.809 39.951-12.28c7.172-4.482 12.354-7.72 24.053-7.72v-30c-20.303-.002-31.197 6.806-39.951 12.278zm-71.661-125.555-8.253 33.237-121.142-55.012v-25.836l121.775 34.479c5.7 1.615 9.046 7.383 7.62 13.132zm-166.888-167.446h45v26h-45zm-74.512 56h194.012v55.876l-97.052-27.479-96.96 28.072zm-36.772 98.348 118.778-34.39v25.708l-119.118 54.049-7.275-32.499c-1.258-5.615 2.087-11.267 7.615-12.868zm93.827 138.653c-7.17 4.481-12.351 7.72-24.048 7.72s-16.878-3.238-24.049-7.72c-6.804-4.253-14.924-9.299-27.727-11.342l-11.649-52.037 112.423-51.011-.001 103.551c-11.222 2.286-18.651 6.902-24.949 10.839zm127.998 0c-7.171 4.482-12.353 7.72-24.051 7.72-11.697 0-16.878-3.238-24.049-7.72-6.299-3.937-13.728-8.553-24.95-10.84l.001-103.541 113.79 51.673-12.744 51.323c-12.959 2.015-21.145 7.102-27.997 11.385z"/><path id="XMLID_1538_" d="m447.996 406.36c-11.699 0-16.881-3.238-24.053-7.72-8.754-5.471-19.648-12.28-39.951-12.28s-31.197 6.809-39.951 12.28c-7.171 4.482-12.353 7.72-24.051 7.72-11.697 0-16.878-3.238-24.049-7.72-8.754-5.471-19.648-12.28-39.95-12.28-20.301 0-31.195 6.809-39.948 12.28-7.17 4.481-12.351 7.72-24.048 7.72s-16.878-3.238-24.049-7.72c-8.754-5.471-19.648-12.28-39.95-12.28s-31.196 6.809-39.95 12.28c-7.171 4.481-12.352 7.72-24.049 7.72s-16.878-3.238-24.049-7.72c-8.753-5.471-19.647-12.28-39.948-12.28v30c11.697 0 16.877 3.238 24.048 7.72 8.754 5.471 19.647 12.28 39.949 12.28s31.195-6.809 39.949-12.28c7.171-4.482 12.352-7.72 24.05-7.72s16.879 3.238 24.05 7.72c8.754 5.471 19.647 12.28 39.949 12.28 20.301 0 31.195-6.809 39.948-12.28 7.17-4.481 12.351-7.72 24.048-7.72 11.698 0 16.879 3.238 24.05 7.72 8.754 5.471 19.647 12.28 39.949 12.28 20.303 0 31.197-6.809 39.951-12.28 7.171-4.482 12.353-7.72 24.051-7.72 11.699 0 16.881 3.238 24.053 7.72 8.754 5.471 19.648 12.28 39.951 12.28s31.197-6.809 39.951-12.28c7.172-4.482 12.354-7.72 24.053-7.72v-30c-20.303 0-31.197 6.809-39.951 12.28-7.172 4.482-12.354 7.72-24.053 7.72z"/><path id="XMLID_1539_" d="m319.99 477.898c-11.697 0-16.878-3.238-24.049-7.72-8.754-5.471-19.648-12.28-39.95-12.28-20.301 0-31.195 6.809-39.948 12.28-7.17 4.481-12.351 7.72-24.048 7.72s-16.878-3.238-24.049-7.72c-8.754-5.471-19.648-12.28-39.95-12.28v30c11.698 0 16.879 3.238 24.05 7.72 8.754 5.471 19.647 12.28 39.949 12.28 20.301 0 31.195-6.809 39.948-12.28 7.17-4.481 12.351-7.72 24.048-7.72 11.698 0 16.879 3.238 24.05 7.72 8.754 5.471 19.647 12.28 39.949 12.28 20.303 0 31.197-6.809 39.951-12.28 7.171-4.482 12.353-7.72 24.051-7.72v-30c-20.303 0-31.197 6.809-39.951 12.28-7.171 4.482-12.353 7.72-24.051 7.72z"/></g></svg>